{
.appVersion = "3343";
.formatVersion = 3;
DisplayStrings = (
"zipped up tripped up
front"
);
axes = (
{
name = Weight;
tag = wght;
}
);
date = "2025-06-22 16:38:40 +0000";
familyName = Juncture;
fontMaster = (
{
axesValues = (
10
);
iconName = Light_SemiExtended;
id = m004;
metricValues = (
{
over = 16;
pos = 700;
},
{
over = 16;
pos = 650;
},
{
over = 16;
pos = 450;
},
{
over = -16;
},
{
over = -16;
pos = -200;
},
{
pos = -16;
}
);
name = "thin slant";
userData = {
GSCornerRadius = 15;
GSOffsetHorizontal = -36;
GSOffsetVertical = -36;
};
}
);
glyphs = (
{
glyphname = A;
lastChange = "2025-07-24 16:04:29 +0000";
layers = (
{
layerId = m004;
shapes = (
{
closed = 1;
nodes = (
(151,0,l),
(204,650,l),
(163,650,l),
(113,0,l)
);
},
{
closed = 1;
nodes = (
(204,650,l),
(163,650,l),
(589,0,l),
(627,0,l)
);
},
{
closed = 1;
nodes = (
(437,260,l),
(428,290,l),
(139,290,l),
(148,260,l)
);
}
);
width = 610;
}
);
metricRight = "=|";
unicode = 65;
},
{
glyphname = B;
lastChange = "2025-07-24 16:04:29 +0000";
layers = (
{
layerId = m004;
shapes = (
{
closed = 1;
nodes = (
(388,0,ls),
(505,0,o),
(548,69,o),
(516,181,cs),
(478,316,o),
(384,352,o),
(329,356,c),
(370,364,o),
(378,421,o),
(358,491,cs),
(338,561,o),
(294,650,o),
(143,650,cs),
(-8,650,l),
(178,0,l)
);
},
{
closed = 1;
nodes = (
(119,332,l),
(301,332,ls),
(383,332,o),
(453,276,o),
(480,181,cs),
(505,95,o),
(476,32,o),
(387,32,cs),
(205,32,l)
);
},
{
closed = 1;
nodes = (
(37,618,l),
(165,618,ls),
(269,618,o),
(305,551,o),
(322,491,cs),
(336,444,o),
(342,364,o),
(238,364,c),
(110,364,l)
);
}
);
width = 564;
}
);
metricLeft = "=H";
unicode = 66;
},
{
glyphname = C;
lastChange = "2025-07-24 16:05:05 +0000";
layers = (
{
layerId = m004;
shapes = (
{
closed = 1;
nodes = (
(463,-16,o),
(529,-12,o),
(574,0,c),
(565,32,l),
(522,21,o),
(469,17,o),
(423,16,cs),
(278,15,o),
(158,119,o),
(99,325,cs),
(42,525,o),
(99,636,o),
(245,634,cs),
(293,633,o),
(348,629,o),
(397,618,c),
(388,650,l),
(335,662,o),
(267,666,o),
(236,666,cs),
(77,666,o),
(-9,567,o),
(60,325,cs),
(129,83,o),
(273,-16,o),
(432,-16,cs)
);
}
);
width = 623;
}
);
metricLeft = O;
metricRight = "=H";
unicode = 67;
},
{
glyphname = D;
lastChange = "2025-07-24 16:05:05 +0000";
layers = (
{
layerId = m004;
shapes = (
{
closed = 1;
nodes = (
(178,0,l),
(391,0,ls),
(551,0,o),
(631,82,o),
(562,323,cs),
(494,558,o),
(365,650,o),
(205,650,cs),
(-8,650,l)
);
},
{
closed = 1;
nodes = (
(37,618,l),
(212,618,ls),
(365,618,o),
(466,520,o),
(523,323,cs),
(580,121,o),
(533,32,o),
(380,32,cs),
(205,32,l)
);
}
);
width = 679;
}
);
metricLeft = "=H";
metricRight = "=O";
unicode = 68;
},
{
glyphname = E;
lastChange = "2025-07-24 16:04:29 +0000";
layers = (
{
layerId = m004;
shapes = (
{
closed = 1;
nodes = (
(178,0,l),
(548,0,l),
(539,32,l),
(205,32,l),
(122,322,l),
(319,322,l),
(310,354,l),
(113,354,l),
(37,618,l),
(371,618,l),
(362,650,l),
(-8,650,l)
);
}
);
width = 489;
}
);
metricLeft = "=H";
unicode = 69;
},
{
glyphname = F;
lastChange = "2025-07-24 16:04:29 +0000";
layers = (
{
layerId = m004;
shapes = (
{
closed = 1;
nodes = (
(178,0,l),
(214,0,l),
(131,291,l),
(358,291,l),
(349,323,l),
(122,323,l),
(37,618,l),
(381,618,l),
(372,650,l),
(-8,650,l)
);
}
);
width = 474;
}
);
metricLeft = "=H";
unicode = 70;
},
{
glyphname = G;
lastChange = "2025-07-24 16:05:05 +0000";
layers = (
{
layerId = m004;
shapes = (
{
closed = 1;
nodes = (
(499,-16,o),
(570,20,o),
(599,93,c),
(626,-2,l),
(662,-2,l),
(568,326,l),
(395,326,l),
(404,294,l),
(541,294,l),
(575,174,l),
(574,109,o),
(535,17,o),
(424,16,cs),
(278,15,o),
(158,119,o),
(99,325,cs),
(42,525,o),
(99,635,o),
(281,633,cs),
(327,633,o),
(383,629,o),
(432,618,c),
(423,650,l),
(370,662,o),
(302,666,o),
(271,666,cs),
(77,666,o),
(-9,567,o),
(60,325,cs),
(129,83,o),
(273,-16,o),
(427,-16,cs)
);
}
);
width = 700;
}
);
metricLeft = "=O";
metricRight = "=H-10";
unicode = 71;
},
{
glyphname = H;
lastChange = "2025-07-24 16:04:29 +0000";
layers = (
{
layerId = m004;
shapes = (
{
closed = 1;
nodes = (
(177,2,l),
(213,2,l),
(27,650,l),
(-9,650,l)
);
},
{
closed = 1;
nodes = (
(581,2,l),
(617,2,l),
(431,650,l),
(395,650,l)
);
},
{
closed = 1;
nodes = (
(496,317,l),
(486,349,l),
(103,349,l),
(113,317,l)
);
}
);
width = 666;
}
);
metricRight = "=|";
unicode = 72;
},
{
glyphname = I;
lastChange = "2025-07-24 16:04:29 +0000";
layers = (
{
layerId = m004;
shapes = (
{
closed = 1;
nodes = (
(-8,650,l),
(178,0,l),
(214,0,l),
(28,650,l)
);
}
);
width = 263;
}
);
metricLeft = H;
metricRight = H;
unicode = 73;
},
{
glyphname = J;
lastChange = "2025-07-24 16:04:29 +0000";
layers = (
{
layerId = m004;
shapes = (
{
closed = 1;
nodes = (
(458,-16,o),
(514,37,o),
(468,197,cs),
(339,650,l),
(303,650,l),
(435,187,ls),
(467,75,o),
(432,16,o),
(363,16,cs),
(316,16,o),
(261,21,o),
(212,32,c),
(221,0,l),
(273,-12,o),
(330,-16,o),
(372,-16,cs)
);
}
);
width = 574;
}
);
metricRight = "=H";
unicode = 74;
},
{
glyphname = K;
lastChange = "2025-07-24 16:04:26 +0000";
layers = (
{
layerId = m004;
shapes = (
{
closed = 1;
nodes = (
(177,1,l),
(213,1,l),
(27,650,l),
(-9,650,l)
);
},
{
closed = 1;
nodes = (
(618,0,l),
(244,407,l),
(203,407,l),
(577,0,l)
);
},
{
closed = 1;
nodes = (
(122,206,l),
(134,206,l),
(384,650,l),
(339,650,l),
(112,243,l)
);
}
);
width = 582;
}
);
metricLeft = "=H";
unicode = 75;
},
{
glyphname = L;
lastChange = "2025-07-24 16:04:26 +0000";
layers = (
{
layerId = m004;
shapes = (
{
closed = 1;
nodes = (
(177,2,l),
(181,2,l),
(181,0,l),
(540,0,l),
(531,32,l),
(204,32,l),
(27,650,l),
(-9,650,l)
);
}
);
width = 493;
}
);
metricLeft = "=H";
unicode = 76;
},
{
glyphname = M;
lastChange = "2025-07-24 16:04:29 +0000";
layers = (
{
layerId = m004;
shapes = (
{
closed = 1;
nodes = (
(501,0,l),
(615,579,l),
(781,1,l),
(813,1,l),
(627,650,l),
(595,650,l),
(479,57,l),
(23,650,l),
(-9,650,l),
(177,1,l),
(209,1,l),
(43,579,l),
(489,0,l)
);
}
);
width = 862;
}
);
metricLeft = H;
metricRight = H;
unicode = 77;
},
{
glyphname = N;
lastChange = "2025-07-24 16:04:29 +0000";
layers = (
{
layerId = m004;
shapes = (
{
closed = 1;
nodes = (
(178,0,l),
(214,0,l),
(46,585,l),
(678,0,l),
(714,0,l),
(528,650,l),
(492,650,l),
(660,65,l),
(28,650,l),
(-8,650,l)
);
}
);
width = 763;
}
);
metricLeft = H;
metricRight = H;
unicode = 78;
},
{
glyphname = O;
lastChange = "2025-07-24 16:04:29 +0000";
layers = (
{
layerId = m004;
shapes = (
{
closed = 1;
nodes = (
(289,17,o),
(168,85,o),
(99,325,cs),
(30,564,o),
(113,633,o),
(245,634,cs),
(379,633,o),
(500,564,o),
(569,325,cs),
(638,85,o),
(555,17,o),
(423,16,cs)
);
},
{
closed = 1;
nodes = (
(592,-16,o),
(683,63,o),
(608,325,cs),
(533,587,o),
(396,666,o),
(236,666,cs),
(77,666,o),
(-15,587,o),
(60,325,cs),
(135,63,o),
(273,-16,o),
(432,-16,cs)
);
}
);
width = 726;
}
);
metricRight = "=|";
unicode = 79;
},
{
glyphname = P;
lastChange = "2025-07-24 16:04:29 +0000";
layers = (
{
layerId = m004;
shapes = (
{
closed = 1;
nodes = (
(214,0,l),
(28,650,l),
(-8,650,l),
(178,0,l)
);
},
{
closed = 1;
nodes = (
(126,256,l),
(273,256,ls),
(384,256,o),
(439,312,o),
(398,454,cs),
(357,596,o),
(271,650,o),
(160,650,cs),
(13,650,l),
(22,618,l),
(159,618,ls),
(274,618,o),
(329,557,o),
(359,454,cs),
(389,350,o),
(369,288,o),
(254,288,cs),
(117,288,l)
);
}
);
width = 553;
}
);
metricLeft = "=H";
metricRight = "=O";
unicode = 80;
},
{
glyphname = Q;
lastChange = "2025-07-24 16:04:29 +0000";
layers = (
{
layerId = m004;
shapes = (
{
closed = 1;
nodes = (
(30,564,o),
(113,633,o),
(245,634,cs),
(377,633,o),
(500,565,o),
(569,325,cs),
(637,86,o),
(554,17,o),
(422,16,cs),
(290,17,o),
(167,86,o),
(99,325,cs)
);
},
{
closed = 1;
nodes = (
(135,63,o),
(272,-16,o),
(431,-16,cs),
(591,-16,o),
(683,63,o),
(608,325,cs),
(532,587,o),
(396,666,o),
(236,666,cs),
(77,666,o),
(-16,587,o),
(60,325,cs)
);
},
{
closed = 1;
nodes = (
(573,73,l),
(691,-33,l),
(715,-6,l),
(596,102,l)
);
}
);
width = 724;
}
);
metricLeft = "=O";
metricRight = "=O-14";
unicode = 81;
},
{
glyphname = R;
lastChange = "2025-07-24 16:04:29 +0000";
layers = (
{
layerId = m004;
shapes = (
{
closed = 1;
nodes = (
(214,0,l),
(28,650,l),
(-8,650,l),
(178,0,l)
);
},
{
closed = 1;
nodes = (
(307,276,ls),
(418,276,o),
(473,332,o),
(435,464,cs),
(397,596,o),
(311,650,o),
(200,650,cs),
(13,650,l),
(22,618,l),
(199,618,ls),
(314,618,o),
(369,557,o),
(396,464,cs),
(423,370,o),
(403,308,o),
(288,308,cs),
(111,308,l),
(120,276,l)
);
},
{
closed = 1;
nodes = (
(586,0,l),
(331,298,l),
(294,298,l),
(545,0,l)
);
}
);
width = 531;
}
);
metricLeft = "=H";
unicode = 82;
},
{
glyphname = S;
lastChange = "2025-07-24 16:04:26 +0000";
layers = (
{
layerId = m004;
shapes = (
{
closed = 1;
nodes = (
(448,-16,o),
(542,35,o),
(508,155,cs),
(479,256,o),
(398,307,o),
(308,338,cs),
(218,369,ls),
(150,393,o),
(83,432,o),
(60,515,cs),
(38,591,o),
(84,634,o),
(164,633,cs),
(211,633,o),
(266,629,o),
(315,618,c),
(306,650,l),
(253,662,o),
(185,666,o),
(154,666,cs),
(66,666,o),
(-8,615,o),
(23,506,cs),
(51,409,o),
(127,364,o),
(207,336,cs),
(288,308,ls),
(360,283,o),
(445,239,o),
(469,155,cs),
(496,59,o),
(421,16,o),
(331,16,cs),
(283,17,o),
(228,21,o),
(179,32,c),
(188,0,l),
(241,-12,o),
(309,-16,o),
(340,-16,cs)
);
}
);
width = 489;
}
);
unicode = 83;
},
{
glyphname = T;
lastChange = "2025-07-24 16:04:29 +0000";
layers = (
{
layerId = m004;
shapes = (
{
closed = 1;
nodes = (
(-82,650,l),
(-73,618,l),
(128,618,l),
(305,2,l),
(341,2,l),
(164,618,l),
(365,618,l),
(356,650,l)
);
}
);
width = 518;
}
);
metricRight = "=|";
unicode = 84;
},
{
glyphname = U;
lastChange = "2025-07-24 16:04:29 +0000";
layers = (
{
layerId = m004;
shapes = (
{
closed = 1;
nodes = (
(423,650,l),
(462,650,l),
(577,247,ls),
(627,73,o),
(590,-16,o),
(412,-16,cs),
(234,-16,o),
(147,73,o),
(97,247,cs),
(-18,650,l),
(21,650,l),
(136,247,ls),
(182,86,o),
(260,16,o),
(403,16,cs),
(546,16,o),
(585,85,o),
(538,247,cs)
);
}
);
width = 687;
}
);
metricLeft = "=H-10";
metricRight = "=|";
unicode = 85;
},
{
glyphname = V;
lastChange = "2025-07-24 16:04:29 +0000";
layers = (
{
layerId = m004;
shapes = (
{
closed = 1;
nodes = (
(397,0,l),
(448,650,l),
(409,651,l),
(363,20,l),
(375,20,l),
(-33,650,l),
(-72,650,l),
(351,0,l)
);
}
);
width = 620;
}
);
metricRight = "=|";
unicode = 86;
},
{
glyphname = W;
lastChange = "2025-07-24 16:04:29 +0000";
layers = (
{
layerId = m004;
shapes = (
{
closed = 1;
nodes = (
(361,0,l),
(399,0,l),
(378,637,l),
(351,637,l),
(707,0,l),
(742,0,l),
(754,650,l),
(719,650,l),
(714,28,l),
(725,28,l),
(378,650,l),
(343,650,l),
(362,28,l),
(375,28,l),
(12,650,l),
(-23,650,l)
);
}
);
width = 975;
}
);
metricRight = "=|";
unicode = 87;
},
{
glyphname = X;
lastChange = "2025-07-24 16:04:29 +0000";
layers = (
{
layerId = m004;
shapes = (
{
closed = 1;
nodes = (
(-18,650,l),
(-59,650,l),
(588,1,l),
(628,1,l)
);
},
{
closed = 1;
nodes = (
(304,316,l),
(442,650,l),
(401,650,l),
(275,344,l)
);
},
{
closed = 1;
nodes = (
(269,344,l),
(127,1,l),
(167,1,l),
(298,316,l)
);
}
);
width = 627;
}
);
metricRight = "=|";
unicode = 88;
},
{
glyphname = Y;
lastChange = "2025-07-24 16:04:29 +0000";
layers = (
{
layerId = m004;
shapes = (
{
closed = 1;
nodes = (
(241,259,l),
(315,0,l),
(351,0,l),
(277,259,l),
(381,650,l),
(342,650,l),
(243,268,l),
(269,268,l),
(-49,650,l),
(-88,650,l)
);
}
);
width = 537;
}
);
metricRight = "=|";
unicode = 89;
},
{
glyphname = Z;
lastChange = "2025-07-24 16:04:29 +0000";
layers = (
{
layerId = m004;
shapes = (
{
closed = 1;
nodes = (
(169,32,l),
(213,32,l),
(435,618,l),
(391,618,l)
);
},
{
closed = 1;
nodes = (
(169,32,l),
(178,0,l),
(612,0,l),
(603,32,l)
);
},
{
closed = 1;
nodes = (
(-8,650,l),
(1,618,l),
(435,618,l),
(426,650,l)
);
}
);
width = 661;
}
);
metricLeft = H;
metricRight = "=|";
unicode = 90;
},
{
glyphname = a;
lastChange = "2025-07-24 16:04:29 +0000";
layers = (
{
layerId = m004;
shapes = (
{
closed = 1;
nodes = (
(200,248,ls),
(75,248,o),
(49,190,o),
(72,110,cs),
(91,42,o),
(160,-17,o),
(270,-17,cs),
(321,-17,o),
(389,11,o),
(395,52,c),
(381,101,l),
(377,12,o),
(285,13,o),
(252,13,cs),
(190,13,o),
(125,49,o),
(105,120,cs),
(88,179,o),
(118,218,o),
(205,218,c),
(338,218,l),
(329,248,l)
);
},
{
closed = 1;
nodes = (
(19,420,l),
(57,430,o),
(105,437,o),
(152,437,cs),
(184,437,o),
(285,404,o),
(314,301,cs),
(384,57,l),
(386,50,l),
(386,50,l),
(401,0,l),
(435,0,l),
(345,314,ls),
(313,428,o),
(189,467,o),
(124,467,cs),
(92,467,o),
(37,459,o),
(10,450,c)
);
}
);
width = 453;
}
);
metricLeft = "=o-20";
metricRight = "=n";
unicode = 97;
},
{
glyphname = b;
lastChange = "2025-07-24 16:04:29 +0000";
layers = (
{
layerId = m004;
shapes = (
{
closed = 1;
nodes = (
(417,-16,o),
(490,37,o),
(437,225,cs),
(381,418,o),
(278,463,o),
(185,463,cs),
(121,463,o),
(32,423,o),
(78,263,c),
(91,213,l),
(139,46,o),
(240,-16,o),
(319,-16,cs)
);
},
{
closed = 1;
nodes = (
(171,0,l),
(184,0,l),
(185,0,l),
(151,120,l),
(98,248,l),
(91,329,l),
(-16,700,l),
(-50,700,l),
(-7,550,o),
(108,150,o),
(151,0,c)
);
},
{
closed = 1;
nodes = (
(239,14,o),
(157,73,o),
(114,223,c),
(70,387,o),
(131,433,o),
(188,433,cs),
(251,433,o),
(347,411,o),
(401,224,cs),
(451,49,o),
(381,14,o),
(306,14,cs)
);
}
);
width = 496;
}
);
metricLeft = n;
metricRight = o;
unicode = 98;
},
{
glyphname = c;
lastChange = "2025-07-24 16:04:26 +0000";
layers = (
{
layerId = m004;
shapes = (
{
closed = 1;
nodes = (
);
},
{
closed = 1;
nodes = (
(360,-16,o),
(423,-13,o),
(464,0,c),
(455,30,l),
(402,15,o),
(346,14,o),
(330,14,cs),
(241,14,o),
(138,75,o),
(95,225,cs),
(52,374,o),
(118,436,o),
(207,436,cs),
(223,436,o),
(281,435,o),
(342,420,c),
(333,450,l),
(286,463,o),
(221,466,o),
(199,466,cs),
(88,466,o),
(11,394,o),
(59,225,cs),
(107,56,o),
(226,-16,o),
(338,-16,cs)
);
}
);
width = 461;
}
);
metricLeft = "=o";
unicode = 99;
},
{
glyphname = d;
lastChange = "2025-07-24 16:04:29 +0000";
layers = (
{
layerId = m004;
shapes = (
{
closed = 1;
nodes = (
(272,700,l),
(238,700,l),
(345,329,l),
(384,248,l),
(405,120,l),
(439,0,l),
(440,0,l),
(453,0,l),
(473,0,l)
);
},
{
closed = 1;
nodes = (
(394,-16,o),
(459,46,o),
(411,213,c),
(396,263,l),
(350,423,o),
(237,463,o),
(173,463,cs),
(80,463,o),
(3,418,o),
(59,225,cs),
(112,37,o),
(217,-16,o),
(315,-16,cs)
);
},
{
closed = 1;
nodes = (
(235,14,o),
(145,49,o),
(95,224,cs),
(41,411,o),
(125,433,o),
(188,433,cs),
(245,433,o),
(332,387,o),
(382,223,c),
(425,73,o),
(377,14,o),
(310,14,cs)
);
}
);
width = 490;
}
);
metricLeft = o;
metricRight = n;
unicode = 100;
},
{
glyphname = e;
lastChange = "2025-07-24 16:04:26 +0000";
layers = (
{
layerId = m004;
shapes = (
{
closed = 1;
nodes = (
(371,-16,o),
(444,-13,o),
(485,0,c),
(476,30,l),
(413,15,o),
(357,14,o),
(340,14,cs),
(241,14,o),
(136,82,o),
(98,213,c),
(476,211,l),
(475,216,o),
(473,220,o),
(472,225,cs),
(421,404,o),
(310,466,o),
(199,466,cs),
(88,466,o),
(10,395,o),
(59,225,cs),
(107,56,o),
(226,-16,o),
(348,-16,c)
);
},
{
closed = 1;
nodes = (
(52,375,o),
(119,436,o),
(208,436,cs),
(320,436,o),
(377,377,o),
(431,242,c),
(90,242,l)
);
}
);
width = 531;
}
);
metricLeft = o;
metricRight = "=o";
unicode = 101;
},
{
glyphname = f;
lastChange = "2025-07-24 16:04:26 +0000";
layers = (
{
layerId = m004;
shapes = (
{
closed = 1;
nodes = (
(236,-10,l),
(59,607,ls),
(43,664,o),
(60,670,o),
(90,670,cs),
(146,670,l),
(137,700,l),
(81,700,ls),
(24,700,o),
(4,680,o),
(22,617,cs),
(202,-10,l)
);
},
{
closed = 1;
nodes = (
(217,420,l),
(209,450,l),
(5,450,l),
(13,420,l)
);
}
);
width = 328;
}
);
unicode = 102;
},
{
glyphname = g;
lastChange = "2025-07-24 16:04:26 +0000";
layers = (
{
layerId = m004;
shapes = (
{
closed = 1;
nodes = (
(476,-212,o),
(539,-161,o),
(517,-86,cs),
(504,-41,o),
(459,30,o),
(358,30,cs),
(192,30,ls),
(91,30,o),
(86,-41,o),
(99,-86,cs),
(119,-155,o),
(193,-212,o),
(355,-212,cs)
);
},
{
closed = 1;
nodes = (
(159,-182,o),
(141,-113,o),
(134,-88,cs),
(123,-50,o),
(108,0,o),
(189,0,cs),
(376,0,ls),
(445,0,o),
(472,-49,o),
(484,-88,cs),
(491,-115,o),
(504,-182,o),
(344,-182,cs)
);
},
{
closed = 1;
nodes = (
(356,0,l),
(348,30,l),
(213,30,ls),
(107,30,o),
(68,104,o),
(97,159,cs),
(119,200,l),
(92,221,l),
(73,190,ls),
(40,137,o),
(72,0,o),
(214,0,cs)
);
},
{
closed = 1;
nodes = (
(333,141,o),
(403,187,o),
(370,303,cs),
(339,410,o),
(240,466,o),
(147,466,cs),
(55,466,o),
(-12,411,o),
(19,303,cs),
(52,187,o),
(148,141,o),
(240,141,cs)
);
},
{
closed = 1;
nodes = (
(149,171,o),
(78,222,o),
(55,303,cs),
(36,366,o),
(73,436,o),
(155,436,cs),
(238,436,o),
(315,367,o),
(333,304,cs),
(356,224,o),
(314,171,o),
(231,171,cs)
);
},
{
closed = 1;
nodes = (
(251,494,o),
(240,466,o),
(252,422,cs),
(258,404,l),
(294,404,l),
(289,420,l),
(279,454,o),
(275,464,o),
(315,464,c),
(340,464,l),
(332,494,l),
(291,494,ls)
);
}
);
width = 478;
}
);
unicode = 103;
},
{
glyphname = h;
lastChange = "2025-07-24 16:04:29 +0000";
layers = (
{
layerId = m004;
shapes = (
{
closed = 1;
nodes = (
(185,0,l),
(-15,700,l),
(-49,700,l),
(151,0,l)
);
},
{
closed = 1;
nodes = (
(104,284,l),
(72,395,o),
(110,437,o),
(191,437,cs),
(267,437,o),
(323,402,o),
(354,294,cs),
(438,0,l),
(472,0,l),
(390,286,ls),
(354,412,o),
(282,466,o),
(187,466,cs),
(94,466,o),
(32,417,o),
(70,284,c)
);
}
);
width = 497;
}
);
metricLeft = n;
unicode = 104;
},
{
glyphname = i;
lastChange = "2025-07-24 16:04:29 +0000";
layers = (
{
layerId = m004;
shapes = (
{
closed = 1;
nodes = (
(18,569,o),
(25,578,o),
(20,594,cs),
(15,610,o),
(4,619,o),
(-12,619,cs),
(-28,619,o),
(-35,610,o),
(-30,594,cs),
(-25,578,o),
(-14,569,o),
(2,569,cs)
);
},
{
closed = 1;
nodes = (
(250,-10,l),
(242,20,l),
(227,20,ls),
(197,20,o),
(176,26,o),
(160,83,cs),
(54,450,l),
(20,450,l),
(128,73,ls),
(146,10,o),
(178,-10,o),
(235,-10,cs)
);
}
);
width = 195;
}
);
metricLeft = "=n-10";
unicode = 105;
},
{
glyphname = j;
lastChange = "2025-07-24 16:04:29 +0000";
layers = (
{
layerId = m004;
shapes = (
{
closed = 1;
nodes = (
(232,-258,o),
(252,-238,o),
(234,-175,cs),
(54,452,l),
(20,452,l),
(197,-165,ls),
(213,-222,o),
(196,-228,o),
(166,-228,cs),
(110,-228,l),
(119,-258,l),
(175,-258,ls)
);
},
{
closed = 1;
nodes = (
(19,569,o),
(25,578,o),
(20,594,cs),
(16,610,o),
(4,619,o),
(-12,619,cs),
(-28,619,o),
(-34,610,o),
(-30,594,cs),
(-25,578,o),
(-13,569,o),
(3,569,cs)
);
}
);
width = 138;
}
);
metricLeft = "=n-106";
metricRight = "=i";
unicode = 106;
},
{
glyphname = k;
lastChange = "2025-07-24 16:04:29 +0000";
layers = (
{
layerId = m004;
shapes = (
{
closed = 1;
nodes = (
(151,0,l),
(185,0,l),
(-15,700,l),
(-49,700,l)
);
},
{
closed = 1;
nodes = (
(197,289,l),
(156,289,l),
(436,0,l),
(479,0,l)
);
},
{
closed = 1;
nodes = (
(106,187,l),
(120,187,l),
(312,450,l),
(268,450,l),
(97,217,l)
);
}
);
width = 466;
}
);
metricLeft = n;
unicode = 107;
},
{
glyphname = l;
lastChange = "2025-07-24 16:04:29 +0000";
layers = (
{
layerId = m004;
shapes = (
{
closed = 1;
nodes = (
(252,-10,l),
(243,20,l),
(228,20,ls),
(198,20,o),
(177,26,o),
(161,83,cs),
(-16,700,l),
(-50,700,l),
(130,73,ls),
(148,10,o),
(180,-10,o),
(237,-10,cs)
);
}
);
width = 186;
}
);
metricLeft = "=n";
unicode = 108;
},
{
glyphname = m;
lastChange = "2025-07-24 16:04:26 +0000";
layers = (
{
layerId = m004;
shapes = (
{
closed = 1;
nodes = (
(185,0,l),
(66,413,l),
(56,450,l),
(44,450,l),
(22,450,l),
(151,0,l)
);
},
{
closed = 1;
nodes = (
(472,0,l),
(390,286,ls),
(354,412,o),
(281,466,o),
(186,466,cs),
(93,466,o),
(31,417,o),
(69,284,c),
(103,284,l),
(72,395,o),
(110,437,o),
(191,437,cs),
(267,437,o),
(323,402,o),
(354,294,cs),
(438,0,l)
);
},
{
closed = 1;
nodes = (
(759,0,l),
(677,286,ls),
(641,412,o),
(568,466,o),
(473,466,cs),
(380,466,o),
(318,417,o),
(356,284,c),
(390,284,l),
(359,395,o),
(397,437,o),
(478,437,cs),
(554,437,o),
(610,402,o),
(641,294,cs),
(725,0,l)
);
}
);
width = 776;
}
);
metricLeft = "=n";
metricRight = "=n";
unicode = 109;
},
{
glyphname = n;
lastChange = "2025-07-24 16:04:26 +0000";
layers = (
{
layerId = m004;
shapes = (
{
closed = 1;
nodes = (
(438,0,l),
(472,0,l),
(390,286,ls),
(354,412,o),
(301,466,o),
(186,466,cs),
(83,466,o),
(31,417,o),
(69,284,c),
(103,284,l),
(72,395,o),
(100,437,o),
(191,437,cs),
(287,437,o),
(323,402,o),
(354,294,cs)
);
},
{
closed = 1;
nodes = (
(66,413,l),
(64,422,l),
(56,450,l),
(22,450,l),
(151,0,l),
(185,0,l)
);
}
);
width = 489;
}
);
unicode = 110;
},
{
glyphname = o;
lastChange = "2025-07-24 16:04:26 +0000";
layers = (
{
layerId = m004;
shapes = (
{
closed = 1;
nodes = (
(442,-16,o),
(539,36,o),
(485,225,cs),
(431,413,o),
(304,466,o),
(203,466,cs),
(102,466,o),
(5,415,o),
(59,225,cs),
(113,36,o),
(240,-16,o),
(341,-16,cs)
);
},
{
closed = 1;
nodes = (
(250,14,o),
(146,48,o),
(95,225,cs),
(45,401,o),
(128,436,o),
(211,436,cs),
(294,436,o),
(399,401,o),
(449,225,cs),
(500,48,o),
(416,14,o),
(333,14,cs)
);
}
);
width = 544;
}
);
metricRight = "=|";
unicode = 111;
},
{
glyphname = p;
lastChange = "2025-07-24 16:04:29 +0000";
layers = (
{
layerId = m004;
shapes = (
{
closed = 1;
nodes = (
(242,-200,l),
(150,121,l),
(111,202,l),
(91,330,l),
(56,450,l),
(55,450,l),
(42,450,l),
(22,450,l),
(208,-200,l)
);
},
{
closed = 1;
nodes = (
(425,-13,o),
(492,32,o),
(437,225,cs),
(383,413,o),
(289,466,o),
(181,466,cs),
(102,466,o),
(36,404,o),
(84,237,c),
(100,187,l),
(145,27,o),
(258,-13,o),
(322,-13,cs)
);
},
{
closed = 1;
nodes = (
(250,17,o),
(163,63,o),
(113,227,c),
(70,377,o),
(118,436,o),
(185,436,cs),
(270,436,o),
(350,401,o),
(400,226,cs),
(454,39,o),
(380,17,o),
(307,17,cs)
);
}
);
width = 496;
}
);
metricLeft = "=n";
metricRight = o;
unicode = 112;
},
{
glyphname = q;
lastChange = "2025-07-24 16:04:29 +0000";
layers = (
{
layerId = m004;
shapes = (
{
closed = 1;
nodes = (
(530,-200,l),
(344,450,l),
(324,450,l),
(311,450,l),
(310,450,l),
(345,330,l),
(397,202,l),
(404,121,l),
(496,-200,l)
);
},
{
closed = 1;
nodes = (
(374,-13,o),
(463,27,o),
(418,187,c),
(404,237,l),
(356,404,o),
(256,466,o),
(177,466,cs),
(69,466,o),
(5,413,o),
(59,225,cs),
(114,32,o),
(207,-13,o),
(310,-13,cs)
);
},
{
closed = 1;
nodes = (
(234,17,o),
(148,39,o),
(94,226,cs),
(44,401,o),
(104,436,o),
(189,436,cs),
(256,436,o),
(338,377,o),
(381,227,c),
(425,63,o),
(364,17,o),
(307,17,cs)
);
}
);
width = 491;
}
);
metricLeft = "=o";
metricRight = "=n";
unicode = 113;
},
{
glyphname = r;
lastChange = "2025-07-24 16:04:29 +0000";
layers = (
{
layerId = m004;
shapes = (
{
closed = 1;
nodes = (
(260,420,l),
(251,450,l),
(203,450,l),
(71,450,o),
(41,390,o),
(77,259,c),
(108,259,l),
(73,383,o),
(111,420,o),
(198,420,c)
);
},
{
closed = 1;
nodes = (
(55,450,l),
(53,450,l),
(43,450,l),
(21,450,l),
(151,0,l),
(185,0,l)
);
}
);
width = 373;
}
);
metricLeft = n;
unicode = 114;
},
{
glyphname = s;
lastChange = "2025-07-24 16:04:26 +0000";
layers = (
{
layerId = m004;
shapes = (
{
closed = 1;
nodes = (
(202,12,o),
(144,15,o),
(83,30,c),
(92,0,l),
(139,-13,o),
(204,-16,o),
(236,-16,cs),
(239,-16,ls),
(292,-16,o),
(360,0,o),
(374,35,cs),
(393,79,o),
(367,139,o),
(329,171,cs),
(275,217,o),
(106,255,o),
(54,315,cs),
(34,338,o),
(22,380,o),
(32,400,cs),
(49,433,o),
(88,436,o),
(114,436,cs),
(130,436,o),
(188,435,o),
(249,420,c),
(240,450,l),
(193,463,o),
(128,466,o),
(106,466,cs),
(49,466,o),
(6,440,o),
(-2,398,cs),
(-7,368,o),
(-1,336,o),
(24,307,cs),
(99,221,o),
(260,196,o),
(312,149,cs),
(345,119,o),
(356,73,o),
(339,51,cs),
(316,22,o),
(259,12,o),
(228,12,cs)
);
}
);
width = 366;
}
);
unicode = 115;
},
{
glyphname = t;
lastChange = "2025-07-24 16:04:26 +0000";
layers = (
{
layerId = m004;
shapes = (
{
closed = 1;
nodes = (
(318,0,l),
(309,30,l),
(253,30,ls),
(223,30,o),
(202,36,o),
(186,93,cs),
(55,549,l),
(21,549,l),
(155,83,ls),
(173,20,o),
(205,0,o),
(262,0,cs)
);
},
{
closed = 1;
nodes = (
(197,420,l),
(189,450,l),
(-15,450,l),
(-7,420,l)
);
}
);
width = 336;
}
);
unicode = 116;
},
{
glyphname = u;
lastChange = "2025-07-24 16:04:29 +0000";
layers = (
{
layerId = m004;
shapes = (
{
closed = 1;
nodes = (
(55,450,l),
(21,450,l),
(103,164,ls),
(139,38,o),
(212,-16,o),
(307,-16,cs),
(400,-16,o),
(462,33,o),
(424,166,c),
(390,166,l),
(421,55,o),
(383,13,o),
(302,13,cs),
(226,13,o),
(170,48,o),
(139,156,cs)
);
},
{
closed = 1;
nodes = (
(427,37,l),
(437,0,l),
(449,0,l),
(471,0,l),
(342,450,l),
(308,450,l)
);
}
);
width = 489;
}
);
metricLeft = "=n";
metricRight = n;
unicode = 117;
},
{
glyphname = v;
lastChange = "2025-07-24 16:04:26 +0000";
layers = (
{
layerId = m004;
shapes = (
{
closed = 1;
nodes = (
(254,0,l),
(288,0,l),
(304,450,l),
(268,450,l),
(256,33,l),
(266,33,l),
(12,450,l),
(-22,450,l)
);
}
);
width = 452;
}
);
unicode = 118;
},
{
glyphname = w;
lastChange = "2025-07-24 16:04:26 +0000";
layers = (
{
layerId = m004;
shapes = (
{
closed = 1;
nodes = (
(288,0,l),
(302,417,l),
(290,417,l),
(544,0,l),
(578,0,l),
(594,450,l),
(561,450,l),
(547,31,l),
(558,30,l),
(304,450,l),
(268,450,l),
(256,33,l),
(266,33,l),
(11,450,l),
(-22,450,l),
(254,0,l)
);
}
);
width = 716;
}
);
unicode = 119;
},
{
glyphname = x;
lastChange = "2025-07-24 16:04:26 +0000";
layers = (
{
layerId = m004;
shapes = (
{
closed = 1;
nodes = (
(408,1,l),
(448,1,l),
(-4,450,l),
(-44,450,l)
);
},
{
closed = 1;
nodes = (
(123,0,l),
(207,221,l),
(179,248,l),
(85,0,l)
);
},
{
closed = 1;
nodes = (
(208,227,l),
(293,450,l),
(254,450,l),
(185,251,l)
);
}
);
width = 477;
}
);
unicode = 120;
},
{
glyphname = y;
lastChange = "2025-07-24 16:04:26 +0000";
layers = (
{
layerId = m004;
shapes = (
{
closed = 1;
nodes = (
(226,18,l),
(225,0,l),
(-50,450,l),
(-16,450,l),
(238,33,l),
(228,33,l),
(241,451,l),
(276,450,l),
(254,-105,ls),
(250,-176,o),
(229,-200,o),
(148,-200,cs),
(95,-200,o),
(117,-200,o),
(103,-200,c),
(94,-169,l),
(95,-171,o),
(139,-169,o),
(154,-169,cs),
(199,-169,o),
(219,-138,o),
(219,-113,cs)
);
}
);
width = 451;
}
);
unicode = 121;
},
{
glyphname = z;
lastChange = "2025-07-24 16:04:29 +0000";
layers = (
{
layerId = m004;
shapes = (
{
closed = 1;
nodes = (
(132,30,l),
(141,0,l),
(485,0,l),
(476,30,l),
(169,30,l),
(364,420,l),
(355,450,l),
(11,450,l),
(20,420,l),
(327,420,l)
);
}
);
width = 496;
}
);
metricLeft = "=n-10";
metricRight = "=|";
unicode = 122;
},
{
glyphname = zero;
lastChange = "2025-07-24 16:01:56 +0000";
layers = (
{
layerId = m004;
shapes = (
{
closed = 1;
nodes = (
(140,496,o),
(202,570,o),
(288,570,cs),
(364,570,o),
(426,496,o),
(426,325,cs),
(426,154,o),
(364,80,o),
(288,80,cs),
(202,80,o),
(140,154,o),
(140,325,cs)
);
},
{
closed = 1;
nodes = (
(29,83,o),
(149,-16,o),
(288,-16,cs),
(418,-16,o),
(537,83,o),
(537,325,cs),
(537,567,o),
(418,666,o),
(288,666,cs),
(149,666,o),
(29,567,o),
(29,325,cs)
);
}
);
width = 566;
}
);
unicode = 48;
},
{
glyphname = one;
lastChange = "2025-07-24 16:05:05 +0000";
layers = (
{
layerId = m004;
shapes = (
{
closed = 1;
nodes = (
(219,650,l),
(219,571,o),
(177,556,o),
(53,556,c),
(53,468,l),
(219,468,l),
(219,0,l),
(325,0,l),
(325,650,l)
);
}
);
width = 438;
}
);
metricRight = "=H";
unicode = 49;
},
{
glyphname = two;
lastChange = "2025-07-24 16:01:56 +0000";
layers = (
{
layerId = m004;
shapes = (
{
closed = 1;
nodes = (
(42,66,l),
(42,0,l),
(439,0,l),
(439,95,l),
(186,95,l),
(373,347,l),
(499,506,o),
(416,666,o),
(255,666,cs),
(116,666,o),
(42,565,o),
(42,450,c),
(153,450,l),
(153,498,o),
(178,575,o),
(255,575,cs),
(346,575,o),
(349,480,o),
(310,428,c)
);
}
);
width = 481;
}
);
unicode = 50;
},
{
glyphname = three;
lastChange = "2025-07-24 16:01:56 +0000";
layers = (
{
layerId = m004;
shapes = (
{
closed = 1;
nodes = (
(473,650,l),
(88,650,l),
(88,562,l),
(334,562,l),
(212,389,l),
(340,389,l),
(473,584,l)
);
},
{
closed = 1;
nodes = (
(234,409,o),
(256,434,o),
(212,389,c),
(212,330,l),
(213,330,o),
(213,330,o),
(213,330,cs),
(379,330,o),
(406,271,o),
(406,193,cs),
(406,145,o),
(384,75,o),
(298,75,cs),
(212,75,o),
(170,145,o),
(170,193,cs),
(170,193,o),
(170,193,o),
(170,194,c),
(59,194,l),
(59,193,o),
(59,193,o),
(59,193,cs),
(59,78,o),
(159,-16,o),
(298,-16,cs),
(418,-16,o),
(517,78,o),
(517,193,cs),
(517,339,o),
(399,409,o),
(297,409,cs)
);
}
);
width = 600;
}
);
unicode = 51;
},
{
glyphname = four;
lastChange = "2025-07-24 16:01:56 +0000";
layers = (
{
layerId = m004;
shapes = (
{
closed = 1;
nodes = (
(344,650,l),
(344,0,l),
(450,0,l),
(450,650,l)
);
},
{
closed = 1;
nodes = (
(92,143,l),
(525,143,l),
(525,231,l),
(213,231,l),
(447,650,l),
(347,650,l),
(92,209,l)
);
}
);
width = 600;
}
);
unicode = 52;
},
{
glyphname = five;
lastChange = "2025-07-24 16:01:56 +0000";
layers = (
{
layerId = m004;
shapes = (
{
closed = 1;
nodes = (
(86,330,l),
(193,330,l),
(193,562,l),
(473,562,l),
(473,650,l),
(88,650,l),
(88,584,l)
);
},
{
closed = 1;
nodes = (
(234,409,o),
(244,408,o),
(191,407,c),
(193,330,l),
(194,330,o),
(213,330,o),
(213,330,cs),
(379,330,o),
(406,271,o),
(406,193,cs),
(406,145,o),
(384,75,o),
(298,75,cs),
(212,75,o),
(170,145,o),
(170,193,cs),
(170,193,o),
(170,193,o),
(170,194,c),
(59,194,l),
(59,193,o),
(59,193,o),
(59,193,cs),
(59,78,o),
(159,-16,o),
(298,-16,cs),
(418,-16,o),
(517,78,o),
(517,193,cs),
(517,339,o),
(399,409,o),
(297,409,cs)
);
}
);
width = 600;
}
);
unicode = 53;
},
{
glyphname = seven;
lastChange = "2025-07-24 16:01:56 +0000";
layers = (
{
layerId = m004;
shapes = (
{
closed = 1;
nodes = (
(533,650,l),
(133,650,l),
(133,562,l),
(422,562,l),
(219,0,l),
(319,0,l),
(533,584,l)
);
}
);
width = 600;
}
);
unicode = 55;
},
{
glyphname = eight;
lastChange = "2025-07-24 16:01:56 +0000";
layers = (
{
layerId = m004;
shapes = (
{
closed = 1;
nodes = (
(140,241,o),
(182,320,o),
(288,320,cs),
(394,320,o),
(426,241,o),
(426,193,cs),
(426,145,o),
(384,75,o),
(288,75,cs),
(182,75,o),
(140,145,o),
(140,193,cs)
);
},
{
closed = 1;
nodes = (
(29,78,o),
(129,-16,o),
(288,-16,cs),
(438,-16,o),
(537,78,o),
(537,193,cs),
(537,308,o),
(438,411,o),
(288,411,cs),
(129,411,o),
(29,308,o),
(29,193,cs)
);
},
{
closed = 1;
nodes = (
(180,519,o),
(202,574,o),
(288,574,cs),
(364,574,o),
(386,519,o),
(386,490,cs),
(386,461,o),
(364,411,o),
(288,411,cs),
(202,411,o),
(180,461,o),
(180,490,cs)
);
},
{
closed = 1;
nodes = (
(69,404,o),
(149,320,o),
(288,320,cs),
(418,320,o),
(497,404,o),
(497,490,cs),
(497,581,o),
(418,665,o),
(288,665,cs),
(149,665,o),
(69,581,o),
(69,490,cs)
);
}
);
width = 600;
}
);
unicode = 56;
},
{
glyphname = period;
lastChange = "2025-07-24 16:01:56 +0000";
layers = (
{
layerId = m004;
shapes = (
{
closed = 1;
nodes = (
(80,-16,o),
(93,-4,o),
(93,17,cs),
(93,37,o),
(80,49,o),
(60,49,cs),
(40,49,o),
(27,37,o),
(27,17,cs),
(27,-4,o),
(40,-16,o),
(60,-16,cs)
);
}
);
width = 120;
}
);
metricRight = "=|";
unicode = 46;
},
{
glyphname = comma;
lastChange = "2025-07-24 16:01:56 +0000";
layers = (
{
layerId = m004;
shapes = (
{
closed = 1;
nodes = (
(124,-127,o),
(157,-55,o),
(157,34,cs),
(157,93,o),
(132,118,o),
(90,118,cs),
(48,118,o),
(23,93,o),
(23,51,cs),
(23,9,o),
(48,-16,o),
(74,-16,cs),
(81,-16,o),
(90,-14,o),
(98,-11,c),
(96,-48,o),
(77,-86,o),
(33,-86,c),
(33,-127,l)
);
}
);
width = 179;
}
);
unicode = 44;
},
{
glyphname = exclam;
lastChange = "2025-07-24 16:05:05 +0000";
layers = (
{
layerId = m004;
shapes = (
{
closed = 1;
nodes = (
(225,-16,o),
(237,-5,o),
(237,15,cs),
(237,33,o),
(225,45,o),
(206,45,cs),
(187,45,o),
(175,33,o),
(175,15,cs),
(175,-5,o),
(187,-16,o),
(206,-16,cs)
);
},
{
closed = 1;
nodes = (
(186,650,l),
(193,134,l),
(216,134,l),
(223,650,l)
);
}
);
width = 458;
}
);
metricLeft = "=H";
metricRight = "=|";
unicode = 33;
},
{
glyphname = asterisk;
lastChange = "2025-07-24 16:01:56 +0000";
layers = (
{
layerId = m004;
shapes = (
{
closed = 1;
nodes = (
(297,650,l),
(191,650,l),
(206,484,l),
(52,550,l),
(19,448,l),
(183,412,l),
(72,285,l),
(159,223,l),
(244,367,l),
(330,222,l),
(416,285,l),
(305,411,l),
(469,448,l),
(436,549,l),
(282,483,l)
);
}
);
width = 486;
}
);
unicode = 42;
},
{
glyphname = hyphen;
lastChange = "2025-07-24 16:01:56 +0000";
layers = (
{
layerId = m004;
shapes = (
{
closed = 1;
nodes = (
(20,243,l),
(331,243,l),
(331,329,l),
(20,329,l)
);
}
);
width = 351;
}
);
unicode = 45;
},
{
glyphname = bracketleft;
lastChange = "2025-07-24 16:01:56 +0000";
layers = (
{
layerId = m004;
shapes = (
{
closed = 1;
nodes = (
(222,-148,l),
(222,-60,l),
(159,-60,ls),
(126,-60,o),
(116,-45,o),
(116,-19,cs),
(116,572,ls),
(116,598,o),
(126,613,o),
(159,613,cs),
(222,613,l),
(222,701,l),
(129,701,ls),
(56,701,o),
(10,669,o),
(10,582,cs),
(10,-29,ls),
(10,-116,o),
(56,-148,o),
(129,-148,cs)
);
}
);
width = 232;
}
);
unicode = 91;
},
{
glyphname = bracketright;
lastChange = "2025-07-24 16:01:56 +0000";
layers = (
{
layerId = m004;
shapes = (
{
closed = 1;
nodes = (
(176,-148,o),
(222,-116,o),
(222,-29,cs),
(222,582,ls),
(222,669,o),
(176,701,o),
(103,701,cs),
(10,701,l),
(10,613,l),
(73,613,ls),
(106,613,o),
(116,598,o),
(116,572,cs),
(116,-19,ls),
(116,-45,o),
(106,-60,o),
(73,-60,cs),
(10,-60,l),
(10,-148,l),
(103,-148,ls)
);
}
);
width = 232;
}
);
unicode = 93;
},
